HIERARCHY
ROOT Hips
{
	OFFSET 0.000000 95.729000 0.000000
	CHANNELS 6 Xposition Yposition Zposition Yrotation Xrotation Zrotation
	JOINT RightUpLeg
	{
		OFFSET -9.625000 -1.639000 0.000000
		CHANNELS 3 Yrotation Xrotation Zrotation
		JOINT RightLeg
		{
			OFFSET 0.000000 -43.120000 0.000000
			CHANNELS 3 Yrotation Xrotation Zrotation
			JOINT RightFoot
			{
				OFFSET 0.000000 -43.120000 0.000000
				CHANNELS 3 Yrotation Xrotation Zrotation
				End Site
				{
					OFFSET 0.000000 -7.850000 17.850000
				}
			}
		}
	}
	JOINT LeftUpLeg
	{
		OFFSET 9.625000 -1.639000 0.000000
		CHANNELS 3 Yrotation Xrotation Zrotation
		JOINT LeftLeg
		{
			OFFSET 0.000000 -43.120000 0.000000
			CHANNELS 3 Yrotation Xrotation Zrotation
			JOINT LeftFoot
			{
				OFFSET 0.000000 -43.120000 0.000000
				CHANNELS 3 Yrotation Xrotation Zrotation
				End Site
				{
					OFFSET 0.000000 -7.850000 17.850000
				}
			}
		}
	}
	JOINT Spine
	{
		OFFSET 0.000000 14.755000 0.000000
		CHANNELS 3 Yrotation Xrotation Zrotation
		JOINT Spine1
		{
			OFFSET 0.000000 10.023000 0.000000
			CHANNELS 3 Yrotation Xrotation Zrotation
			JOINT Spine2
			{
				OFFSET 0.000000 10.437000 0.000000
				CHANNELS 3 Yrotation Xrotation Zrotation
				JOINT Spine3
				{
					OFFSET 0.000000 10.023000 0.000000
					CHANNELS 3 Yrotation Xrotation Zrotation
					JOINT Neck
					{
						OFFSET 0.000000 10.713000 0.000000
						CHANNELS 3 Yrotation Xrotation Zrotation
						JOINT Head
						{
							OFFSET 0.000000 9.720000 0.000000
							CHANNELS 3 Yrotation Xrotation Zrotation
							End Site
							{
								OFFSET 0.000000 16.450000 0.000000
							}
						}
					}
					JOINT RightShoulder
					{
						OFFSET -3.275000 7.142000 0.000000
						CHANNELS 3 Yrotation Xrotation Zrotation
						JOINT RightArm
						{
							OFFSET -13.100000 0.000000 0.000000
							CHANNELS 3 Yrotation Xrotation Zrotation
							JOINT RightForeArm
							{
								OFFSET -27.250000 0.000000 0.000000
								CHANNELS 3 Yrotation Xrotation Zrotation
								JOINT RightHand
								{
									OFFSET -26.750000 0.000000 0.000000
									CHANNELS 3 Yrotation Xrotation Zrotation
									End Site
									{
										OFFSET -3.479000 0.532000 0.778000
									}
								}
							}
						}
					}
					JOINT LeftShoulder
					{
						OFFSET 3.275000 7.142000 0.000000
						CHANNELS 3 Yrotation Xrotation Zrotation
						JOINT LeftArm
						{
							OFFSET 13.100000 0.000000 0.000000
							CHANNELS 3 Yrotation Xrotation Zrotation
							JOINT LeftForeArm
							{
								OFFSET 27.250000 0.000000 0.000000
								CHANNELS 3 Yrotation Xrotation Zrotation
								JOINT LeftHand
								{
									OFFSET 26.750000 0.000000 0.000000
									CHANNELS 3 Yrotation Xrotation Zrotation
									End Site
									{
										OFFSET 3.479000 0.532000 0.778000
									}
								}
							}
						}
					}
				}
			}
		}
	}
}
MOTION
Frames: 26
Frame Time: 0.041667
234.23 94.67 -119.34 -68.71 9.79 -6.0 9.94 -25.35 2.7 -0.0 28.24 0.0 -10.35 -12.4 6.89 11.87 -11.99 8.66 -0.0 24.43 -0.0 -17.95 -22.63 -1.61 7.05 2.97 0.48 1.77 0.71 0.08 2.95 1.14 0.15 -0.1 -0.44 0.15 -0.1 -0.44 0.15 -2.19 -7.84 2.93 -8.22 -1.62 8.38 4.69 -0.06 66.58 9.81 16.02 14.9 -0.08 12.7 -9.91 -3.74 -8.09 -8.73 -20.45 3.98 -69.23 -5.97 17.96 -1.78 -5.33 -0.1 8.82
233.81 94.57 -119.43 -68.53 9.7 -5.91 10.11 -24.87 2.75 0.0 27.97 0.0 -10.88 -12.63 6.87 11.82 -11.77 8.85 -0.0 24.52 -0.0 -18.09 -22.6 -1.89 7.09 2.97 0.47 1.78 0.71 0.08 2.96 1.14 0.15 -0.1 -0.44 0.15 -0.1 -0.44 0.15 -2.18 -7.96 2.87 -8.22 -1.37 8.24 4.35 -0.25 66.68 9.35 15.66 14.8 -0.07 12.62 -10.21 -3.59 -8.12 -8.72 -20.0 4.23 -68.89 -7.19 17.59 -1.96 -5.17 -0.08 9.62
233.36 94.5 -119.52 -68.35 9.63 -5.82 10.32 -24.47 2.73 -0.0 27.87 -0.0 -11.24 -12.84 6.9 11.74 -11.58 9.05 0.0 24.64 0.0 -18.22 -22.55 -2.21 6.99 3.03 0.45 1.76 0.72 0.08 2.92 1.17 0.14 -0.09 -0.45 0.15 -0.09 -0.45 0.15 -1.95 -8.15 2.81 -7.99 -1.25 8.18 4.15 -0.39 66.77 8.9 15.37 14.67 -0.05 12.55 -10.54 -3.15 -8.27 -8.7 -19.65 4.53 -68.55 -8.44 17.1 -2.15 -5.06 -0.08 10.49
232.91 94.46 -119.64 -68.16 9.57 -5.76 10.43 -24.06 2.73 0.0 27.77 0.0 -11.53 -13.07 6.94 11.58 -11.45 9.3 -0.0 24.85 0.0 -18.31 -22.49 -2.54 6.88 3.08 0.44 1.73 0.74 0.07 2.88 1.19 0.14 -0.07 -0.46 0.15 -0.07 -0.46 0.15 -1.72 -8.32 2.76 -7.77 -1.17 8.15 4.11 -0.48 66.87 8.45 15.09 14.51 -0.02 12.48 -10.89 -2.73 -8.41 -8.71 -19.33 4.83 -68.19 -9.64 16.47 -2.34 -5.0 -0.08 11.43
232.49 94.46 -119.78 -67.97 9.52 -5.71 10.51 -23.7 2.72 0.0 27.69 0.0 -11.9 -13.33 7.06 11.31 -11.42 9.55 -0.0 25.16 -0.0 -18.32 -22.27 -2.9 7.28 2.96 0.49 1.83 0.71 0.09 3.04 1.14 0.16 -0.1 -0.46 0.14 -0.1 -0.46 0.14 -2.24 -8.22 2.69 -8.35 -0.88 8.1 4.26 -0.52 66.98 7.97 14.74 14.31 0.02 12.42 -11.21 -3.54 -8.15 -8.74 -18.64 4.92 -67.75 -10.76 15.74 -2.49 -4.99 -0.11 12.45
232.14 94.49 -119.96 -67.79 9.47 -5.66 10.48 -23.36 2.75 -0.0 27.61 -0.0 -12.2 -13.65 7.24 11.02 -11.42 9.79 -0.0 25.39 0.0 -18.3 -21.88 -3.23 7.37 2.98 0.5 1.85 0.71 0.09 3.08 1.14 0.16 -0.11 -0.46 0.14 -0.11 -0.46 0.14 -2.3 -8.3 2.65 -8.38 -0.79 8.11 4.53 -0.56 67.09 7.44 14.26 14.06 0.05 12.39 -11.46 -3.87 -8.11 -8.74 -17.99 4.98 -67.4 -11.78 14.95 -2.58 -5.0 -0.16 13.55
231.76 94.54 -120.18 -67.58 9.44 -5.6 10.34 -23.16 2.82 -0.0 27.73 -0.0 -12.28 -13.94 7.23 10.73 -11.49 10.05 0.0 25.71 0.0 -18.31 -21.38 -3.53 7.46 2.99 0.51 1.88 0.71 0.09 3.12 1.15 0.16 -0.11 -0.46 0.13 -0.11 -0.46 0.13 -2.37 -8.38 2.61 -8.73 -0.76 8.11 5.25 -0.53 67.25 6.9 13.65 13.8 0.05 12.33 -11.62 -3.77 -8.22 -8.75 -17.8 5.2 -67.23 -12.15 15.44 -2.94 -5.67 -1.47 15.28
231.35 94.61 -120.4 -67.36 9.43 -5.53 10.19 -22.98 2.9 -0.0 27.85 -0.0 -12.36 -14.21 7.19 10.39 -11.65 10.3 -0.0 26.19 -0.0 -18.32 -20.74 -3.7 7.57 3.0 0.5 1.9 0.71 0.09 3.16 1.15 0.16 -0.12 -0.47 0.13 -0.12 -0.47 0.13 -2.48 -8.47 2.58 -9.12 -0.74 8.12 6.09 -0.5 67.43 6.32 12.87 13.49 0.05 12.26 -11.67 -3.69 -8.33 -8.73 -17.66 5.42 -67.13 -12.49 15.91 -3.25 -6.32 -2.79 17.0
230.93 94.58 -120.61 -67.14 9.42 -5.43 10.01 -22.68 2.96 0.0 27.75 0.0 -12.4 -14.48 7.53 10.15 -11.29 10.5 -0.0 25.81 -0.0 -18.23 -20.77 -4.0 7.69 3.0 0.49 1.93 0.71 0.08 3.21 1.15 0.15 -0.12 -0.47 0.13 -0.12 -0.47 0.13 -2.56 -8.56 2.53 -9.16 -0.66 8.12 6.68 -0.59 67.58 5.71 11.96 13.2 -0.01 12.12 -11.67 -4.1 -8.3 -8.74 -17.1 5.44 -66.93 -13.36 15.04 -3.2 -6.31 -2.86 18.07
230.55 94.51 -120.82 -66.89 9.41 -5.32 9.8 -22.43 2.98 -0.0 27.66 -0.0 -12.47 -14.61 7.73 9.79 -11.08 10.7 0.0 25.76 0.0 -18.11 -20.94 -4.25 7.82 3.01 0.48 1.97 0.72 0.08 3.26 1.15 0.15 -0.13 -0.48 0.13 -0.13 -0.48 0.13 -2.7 -8.62 2.49 -9.14 -0.56 8.11 7.28 -0.74 67.76 5.09 10.93 12.88 -0.05 11.96 -11.6 -4.55 -8.27 -8.74 -16.55 5.47 -66.78 -14.16 14.17 -3.12 -6.29 -2.88 19.08
230.04 94.4 -121.0 -66.64 9.41 -5.2 9.56 -22.19 2.96 0.0 27.56 -0.0 -12.52 -14.69 8.2 9.27 -11.68 10.92 -0.0 27.31 -0.0 -18.1 -20.63 -4.18 7.67 3.03 0.43 1.93 0.72 0.07 3.2 1.16 0.13 -0.11 -0.48 0.13 -0.12 -0.48 0.13 -2.43 -8.69 2.45 -7.25 -0.15 8.03 6.61 -1.45 67.94 4.44 9.76 12.59 -0.1 11.84 -11.51 -2.28 -8.86 -8.24 -18.24 6.12 -67.73 -15.73 10.73 -2.54 -5.32 -0.41 19.08
229.51 94.29 -121.15 -66.38 9.42 -5.08 9.2 -21.86 2.96 -0.0 27.41 -0.0 -12.39 -14.83 8.22 8.8 -12.39 11.13 0.0 29.02 -0.0 -18.12 -20.17 -4.05 7.51 3.04 0.39 1.89 0.73 0.06 3.14 1.17 0.11 -0.1 -0.48 0.12 -0.1 -0.48 0.12 -2.15 -8.73 2.41 -6.53 0.01 8.02 7.18 -1.77 68.09 3.82 8.58 12.29 -0.16 11.73 -11.39 -1.84 -8.92 -8.14 -18.08 6.21 -67.8 -16.35 9.96 -2.53 -5.37 -0.39 20.0
228.38 94.28 -121.23 -66.11 9.43 -4.96 8.73 -21.48 2.99 -0.0 27.24 -0.0 -12.16 -15.0 8.17 8.01 -15.23 11.41 0.0 34.93 0.0 -17.91 -17.2 -2.78 7.68 3.03 0.37 1.93 0.72 0.05 3.2 1.17 0.1 -0.11 -0.48 0.12 -0.11 -0.48 0.12 -2.36 -8.71 2.36 -6.29 0.21 8.03 7.84 -2.12 68.21 3.24 7.44 12.02 -0.23 11.64 -11.28 -1.86 -8.95 -8.04 -18.6 6.29 -68.02 -16.64 8.71 -2.34 -5.41 -0.37 20.81
227.83 94.28 -121.37 -65.85 9.43 -4.85 8.26 -21.09 3.01 0.0 27.05 0.0 -11.92 -15.18 8.1 7.67 -15.91 11.65 -0.0 36.52 -0.0 -17.87 -15.67 -2.29 7.83 3.02 0.36 1.97 0.72 0.05 3.27 1.16 0.1 -0.12 -0.48 0.12 -0.12 -0.48 0.12 -2.54 -8.67 2.31 -6.02 0.39 8.06 8.58 -2.46 68.31 2.71 6.39 11.75 -0.3 11.59 -11.17 -1.87 -8.97 -7.94 -19.1 6.36 -68.22 -16.88 7.48 -2.15 -5.48 -0.35 21.51
227.28 94.29 -121.54 -65.6 9.44 -4.74 7.83 -20.72 3.05 -0.0 26.87 0.0 -11.72 -15.38 8.02 7.3 -16.67 11.94 -0.0 38.22 -0.0 -17.92 -14.04 -1.63 8.66 3.02 0.34 2.18 0.72 0.04 3.61 1.16 0.08 -0.19 -0.48 0.11 -0.19 -0.48 0.11 -3.74 -8.64 2.33 -6.79 0.51 8.2 9.4 -2.8 68.38 2.23 5.45 11.48 -0.36 11.59 -11.05 -2.92 -9.03 -7.78 -19.63 6.43 -68.43 -17.05 6.27 -1.98 -5.59 -0.36 22.07
226.91 94.32 -121.51 -65.37 9.45 -4.66 7.42 -20.35 3.14 0.0 26.68 0.0 -11.55 -15.58 7.91 6.86 -17.5 12.33 0.0 40.03 0.0 -17.99 -12.38 -0.88 8.86 3.04 0.31 2.23 0.72 0.03 3.69 1.17 0.07 -0.2 -0.48 0.11 -0.2 -0.48 0.11 -3.97 -8.62 2.32 -6.56 0.58 8.32 10.29 -3.14 68.41 1.82 4.64 11.17 -0.42 11.6 -10.89 -2.9 -9.13 -7.65 -20.2 6.51 -68.65 -17.17 5.08 -1.82 -5.75 -0.39 22.49
226.54 94.35 -121.47 -65.15 9.45 -4.58 7.07 -20.0 3.22 -0.0 26.55 -0.0 -11.43 -15.81 7.83 6.27 -18.24 12.73 0.0 41.74 -0.0 -17.83 -10.7 -0.39 9.07 3.07 0.27 2.28 0.73 0.02 3.78 1.18 0.05 -0.22 -0.47 0.11 -0.22 -0.48 0.11 -4.22 -8.59 2.32 -6.36 0.62 8.49 11.24 -3.49 68.4 1.5 3.92 10.85 -0.48 11.62 -10.73 -2.87 -9.26 -7.5 -20.16 6.61 -68.75 -17.49 4.46 -1.89 -5.94 -0.45 22.77
226.21 94.37 -121.41 -64.93 9.44 -4.52 6.73 -19.64 3.28 0.0 26.38 -0.0 -11.32 -16.02 7.8 5.61 -18.98 13.17 0.0 43.46 0.0 -17.49 -9.21 -0.39 9.28 3.11 0.24 2.33 0.74 0.01 3.87 1.2 0.03 -0.23 -0.47 0.11 -0.23 -0.47 0.11 -4.47 -8.55 2.33 -6.21 0.66 8.7 12.26 -3.85 68.31 1.24 3.23 10.57 -0.53 11.64 -10.61 -2.81 -9.4 -7.35 -20.11 6.74 -68.88 -17.75 3.9 -2.0 -6.14 -0.54 22.93
225.92 94.39 -121.35 -64.74 9.43 -4.45 6.45 -19.33 3.33 0.0 26.25 0.0 -11.22 -16.21 7.82 4.92 -19.68 13.57 -0.0 44.95 -0.0 -16.91 -8.28 -0.82 9.54 3.15 0.2 2.4 0.75 -0.0 3.97 1.21 0.02 -0.25 -0.47 0.11 -0.25 -0.47 0.11 -4.78 -8.48 2.35 -6.12 0.65 8.95 13.3 -4.2 68.13 1.05 2.58 10.33 -0.51 11.74 -10.53 -3.43 -9.44 -7.27 -16.67 6.55 -68.8 -18.78 5.98 -2.63 -6.32 -0.65 22.99
225.63 94.4 -121.28 -64.55 9.41 -4.4 6.2 -19.01 3.37 -0.0 26.13 -0.0 -11.14 -16.4 7.88 4.28 -20.27 13.93 0.0 46.11 0.0 -16.36 -7.97 -0.98 9.77 3.18 0.17 2.46 0.76 -0.01 4.07 1.22 0.0 -0.26 -0.46 0.11 -0.26 -0.46 0.11 -5.05 -8.39 2.37 -6.02 0.63 9.24 14.38 -4.54 67.85 0.94 1.95 10.12 -0.51 11.72 -10.43 -3.99 -9.46 -7.2 -15.86 6.49 -68.87 -18.87 5.66 -2.67 -6.47 -0.76 22.94
225.36 94.41 -121.19 -64.4 9.41 -4.35 6.04 -18.73 3.37 -0.0 26.02 -0.0 -11.1 -16.61 7.99 3.72 -20.78 14.25 0.0 47.03 0.0 -16.14 -7.87 -0.38 9.69 3.19 0.17 2.44 0.76 -0.01 4.03 1.23 -0.0 -0.25 -0.46 0.11 -0.25 -0.46 0.11 -4.81 -8.28 2.32 -5.43 0.6 9.51 13.8 -4.55 67.57 1.95 2.82 9.97 -0.56 11.57 -10.3 -1.97 -9.86 -7.09 -17.01 6.94 -69.56 -18.92 5.42 -2.72 -6.6 -0.86 22.82
225.1 94.43 -121.09 -64.26 9.4 -4.32 5.9 -18.44 3.38 0.0 25.89 0.0 -11.06 -16.8 8.13 3.2 -21.31 14.49 0.0 47.78 -0.0 -15.89 -7.75 -0.06 9.6 3.21 0.16 2.42 0.76 -0.01 4.0 1.23 -0.0 -0.24 -0.45 0.11 -0.24 -0.45 0.11 -4.59 -8.17 2.29 -4.9 0.53 9.82 13.29 -4.51 67.27 2.95 3.53 9.83 -0.49 11.51 -10.2 -1.32 -10.0 -7.13 -16.74 7.08 -69.79 -18.9 5.26 -2.79 -6.72 -0.95 22.66
224.86 94.44 -120.98 -64.14 9.39 -4.26 5.75 -18.16 3.36 0.0 25.77 0.0 -11.0 -16.99 8.28 2.83 -21.82 14.69 0.0 48.24 0.0 -15.89 -7.7 -0.25 9.85 3.21 0.13 2.48 0.76 -0.02 4.1 1.24 -0.01 -0.25 -0.44 0.11 -0.26 -0.45 0.11 -4.9 -8.04 2.33 -4.97 0.41 10.23 12.84 -4.39 66.93 4.04 4.14 9.71 -0.51 11.36 -10.08 -1.21 -10.12 -7.13 -16.41 7.24 -70.03 -18.82 5.16 -2.88 -6.83 -1.04 22.5
224.62 94.46 -120.87 -64.02 9.38 -4.18 5.64 -17.87 3.29 -0.0 25.64 -0.0 -10.96 -17.16 8.44 2.51 -22.38 14.76 0.0 48.67 0.0 -15.88 -7.52 -0.38 10.11 3.22 0.09 2.54 0.77 -0.03 4.2 1.24 -0.04 -0.27 -0.44 0.11 -0.27 -0.44 0.11 -5.2 -7.9 2.35 -5.08 0.24 10.66 12.43 -4.2 66.6 5.21 4.62 9.58 -0.39 11.31 -9.94 -1.1 -10.23 -7.13 -16.06 7.43 -70.28 -18.68 5.11 -2.99 -6.95 -1.15 22.35
224.39 94.47 -120.74 -63.9 9.36 -4.05 5.59 -17.59 3.17 0.0 25.54 -0.0 -10.98 -17.32 8.62 2.92 -23.51 14.64 0.0 49.57 -0.0 -16.34 -7.22 0.04 10.03 3.25 0.03 2.52 0.77 -0.05 4.17 1.25 -0.06 -0.26 -0.43 0.11 -0.26 -0.43 0.11 -5.03 -7.8 2.34 -4.71 -0.0 11.0 13.68 -4.28 66.18 5.51 3.62 9.29 -0.27 11.25 -9.78 -0.47 -10.35 -7.18 -15.71 7.67 -70.55 -18.5 5.11 -3.09 -7.06 -1.26 22.18
224.16 94.5 -120.58 -63.78 9.34 -3.9 5.5 -17.28 3.02 -0.0 25.4 0.0 -10.98 -17.46 8.77 2.73 -24.48 14.42 0.0 50.28 0.0 -16.19 -7.02 0.17 9.96 3.28 -0.04 2.5 0.78 -0.07 4.14 1.27 -0.09 -0.25 -0.43 0.11 -0.26 -0.43 0.11 -4.87 -7.73 2.33 -4.36 -0.27 11.28 14.86 -4.41 65.75 5.82 2.58 9.02 -0.15 11.18 -9.6 0.15 -10.47 -7.21 -15.37 7.95 -70.86 -18.28 5.16 -3.16 -7.18 -1.38 21.98
